<?xml version="1.0" standalone="no"?>
<!DOCTYPE svg PUBLIC "-//W3C//DTD SVG 20010904//EN"
 "http://www.w3.org/TR/2001/REC-SVG-20010904/DTD/svg10.dtd">
<svg version="1.0" xmlns="http://www.w3.org/2000/svg"
 width="5000.000000pt" height="5000.000000pt" viewBox="0 0 5000.000000 5000.000000"
 preserveAspectRatio="xMidYMid meet">

<g transform="translate(0.000000,5000.000000) scale(0.100000,-0.100000)"
fill="#000000" stroke="none">
<path d="M35910 45806 c-3 -2 -43 -6 -90 -7 -176 -4 -366 -33 -587 -90 -938
-239 -1750 -973 -2523 -2277 -69 -116 -128 -211 -131 -211 -3 -1 -8 120 -11
268 -7 301 -12 327 -81 388 -65 57 -84 55 -438 -37 -1072 -279 -2230 -613
-3399 -983 l-265 -84 -3 29 c-5 46 -27 50 -156 28 -287 -49 -584 -144 -957
-305 -165 -72 -175 -75 -231 -70 -52 5 -65 3 -111 -23 -29 -16 -135 -55 -237
-87 -256 -78 -619 -209 -910 -327 -135 -55 -436 -164 -670 -242 -2582 -870
-4749 -1843 -6640 -2983 -398 -240 -946 -593 -1219 -786 -52 -37 -98 -67 -102
-67 -4 0 -33 23 -64 51 -31 29 -87 77 -125 108 -38 31 -138 121 -222 200 -330
311 -766 669 -1364 1118 -458 344 -432 327 -492 321 -54 -5 -89 -27 -121 -74
-38 -55 -42 -90 -24 -184 26 -130 24 -333 -5 -433 -82 -286 -284 -478 -752
-712 -74 -37 -130 -71 -130 -79 0 -14 38 -31 135 -62 70 -21 259 -30 337 -14
346 67 639 431 731 908 12 61 24 112 28 112 24 0 598 -508 1017 -900 156 -146
301 -280 323 -298 21 -18 75 -81 121 -140 45 -59 106 -135 135 -169 l53 -62
-148 -112 c-172 -131 -478 -376 -642 -514 -63 -53 -121 -99 -127 -102 -7 -3
-30 10 -50 28 -43 37 -163 96 -270 132 -40 13 -109 49 -155 79 -203 135 -463
268 -813 416 -469 197 -762 319 -910 377 -459 180 -1425 505 -1502 505 -90 0
-173 -79 -173 -165 0 -21 11 -68 24 -105 38 -104 56 -209 56 -322 0 -332 -181
-612 -633 -981 -153 -125 -172 -148 -145 -175 16 -16 47 -15 154 3 131 23 216
51 339 110 292 141 521 399 619 697 39 120 50 192 50 333 l1 131 230 -97 c701
-294 1332 -592 1770 -836 413 -230 679 -359 865 -418 30 -10 74 -29 98 -42
l42 -25 -67 -62 c-253 -229 -786 -755 -1023 -1011 -149 -160 -448 -498 -580
-655 -67 -80 -125 -144 -128 -143 -4 1 -56 30 -117 64 -155 86 -596 309 -810
409 -573 265 -1264 540 -2060 820 -600 211 -1390 471 -1431 471 -113 1 -208
-99 -208 -221 0 -49 6 -67 66 -175 404 -724 326 -1474 -234 -2238 -49 -66 -56
-97 -22 -97 9 0 56 23 105 51 281 160 482 374 627 664 190 382 232 881 111
1324 -11 40 -18 75 -16 77 4 4 960 -379 1282 -514 808 -338 1479 -638 2093
-938 l273 -133 -127 -168 c-449 -594 -901 -1289 -1255 -1925 -56 -101 -105
-187 -108 -191 -4 -4 -84 21 -177 56 -856 325 -1789 577 -3104 841 -596 120
-743 146 -784 139 -67 -11 -137 -62 -169 -123 -42 -81 -36 -119 46 -266 334
-605 373 -1203 140 -2167 -25 -104 -42 -191 -39 -194 23 -24 224 181 321 326
293 441 362 1038 190 1663 -20 70 -47 157 -60 193 l-25 67 32 -7 c588 -120
1294 -316 2043 -567 474 -159 1315 -464 1315 -478 0 -4 -40 -90 -89 -191 -313
-649 -576 -1301 -805 -1994 -56 -170 -109 -331 -117 -356 l-14 -47 -100 45
c-532 237 -1275 426 -2110 537 -403 54 -936 108 -974 100 -72 -17 -151 -94
-151 -148 0 -9 -4 -16 -10 -16 -5 0 -10 -25 -10 -55 0 -30 5 -55 10 -55 6 0
10 -7 10 -15 0 -26 36 -89 71 -123 17 -17 61 -43 96 -57 260 -104 442 -360
587 -825 19 -63 63 -221 96 -350 33 -129 66 -241 74 -248 36 -36 75 46 120
248 43 192 46 463 6 663 -22 114 -76 279 -117 360 l-24 49 43 -7 c118 -19 517
-102 707 -146 352 -83 515 -133 754 -228 389 -156 552 -202 713 -203 58 0 74
-3 70 -13 -12 -31 -138 -545 -175 -710 -44 -201 -133 -648 -152 -768 -12 -76
-13 -78 -48 -94 -45 -19 -105 -18 -296 7 -222 29 -576 68 -685 75 -52 4 -106
9 -120 12 -14 2 -193 7 -397 10 -335 5 -377 4 -417 -11 -60 -23 -110 -80 -125
-143 -19 -79 -4 -116 90 -225 103 -118 144 -178 207 -305 67 -132 120 -288
189 -553 31 -118 60 -219 65 -225 20 -22 90 99 127 219 62 200 44 428 -53 686
-19 52 -33 96 -31 99 3 2 69 -6 147 -18 347 -54 830 -122 1027 -145 118 -14
216 -28 218 -30 3 -2 -7 -107 -21 -233 -32 -285 -52 -516 -66 -748 -5 -99 -13
-216 -16 -261 l-6 -81 -221 1 c-122 1 -283 -2 -357 -7 -74 -4 -175 -10 -225
-13 -49 -2 -108 -7 -130 -10 -119 -15 -206 -140 -176 -252 9 -30 36 -67 103
-139 178 -191 320 -405 469 -710 68 -140 83 -163 102 -163 40 0 55 21 66 97
33 218 -4 460 -103 669 l-43 91 252 -1 252 -1 6 -400 c4 -220 11 -474 17 -565
64 -1052 230 -2021 519 -3023 l68 -239 -23 -10 c-28 -13 -39 -41 -99 -253
-265 -932 -442 -1979 -599 -3545 -85 -840 -90 -905 -90 -1155 0 -333 32 -501
134 -710 161 -327 466 -575 1036 -843 82 -38 226 -106 319 -150 94 -43 625
-299 1180 -567 1989 -960 2797 -1338 3250 -1520 412 -166 780 -265 1125 -304
131 -15 577 -7 685 12 172 31 361 97 445 157 l30 21 153 -45 c197 -59 318 -91
633 -170 143 -36 401 -105 574 -155 520 -148 834 -230 814 -212 -5 4 -58 38
-119 76 -318 196 -756 511 -1030 740 -669 558 -1224 1211 -1672 1965 -695
1171 -1242 2557 -1642 4160 -669 2676 -640 5149 84 7185 29 82 52 151 50 153
-8 9 -318 -419 -470 -648 -272 -410 -447 -713 -665 -1155 -342 -692 -604
-1415 -785 -2168 -21 -86 -40 -155 -42 -153 -7 7 -70 281 -113 492 -54 265
-64 428 -64 1109 -1 530 5 688 40 1095 245 2892 1536 5661 3604 7731 254 255
470 453 696 641 72 60 136 120 142 133 6 13 116 102 244 198 534 399 1103 789
1576 1081 133 83 157 105 131 121 -20 13 -1001 -560 -1479 -865 -258 -164
-579 -377 -758 -503 -107 -76 -128 -87 -165 -87 -40 0 -139 -20 -182 -36 -27
-10 64 66 340 286 976 776 1969 1431 3033 1999 149 80 172 96 172 116 0 55
-24 50 -285 -55 -787 -319 -1574 -714 -2311 -1161 -90 -54 -202 -115 -251
-135 -328 -135 -846 -385 -1183 -569 -729 -400 -1373 -828 -2125 -1415 -113
-87 -205 -157 -205 -155 0 11 188 475 267 660 460 1076 996 2009 1597 2780
396 508 850 980 1381 1434 691 592 1422 1087 2520 1706 187 106 473 271 635
367 162 96 367 216 455 268 190 110 340 210 414 277 64 58 63 77 -4 111 l-45
22 -80 -20 c-43 -11 -125 -36 -182 -56 -119 -42 -196 -67 -473 -157 -363 -117
-825 -294 -1195 -457 -493 -218 -1123 -555 -1625 -869 -93 -58 -175 -110 -182
-114 -34 -21 0 13 154 154 1208 1100 2531 1965 4908 3209 383 200 1174 594
1615 805 206 98 570 274 809 392 239 117 436 213 439 213 3 0 -49 -55 -114
-122 -550 -567 -1000 -1301 -1317 -2148 -192 -513 -322 -1070 -382 -1635 -22
-208 -31 -752 -16 -985 44 -668 180 -1284 418 -1885 70 -177 261 -570 354
-728 317 -538 729 -1008 1185 -1353 43 -33 86 -63 95 -66 24 -9 59 19 59 47 0
13 -48 91 -115 186 -104 149 -120 179 -180 328 -37 90 -134 318 -217 505 -342
774 -439 1076 -503 1556 -22 162 -30 597 -16 805 40 585 209 1247 473 1844
112 256 285 584 456 866 97 160 383 597 388 593 2 -2 -8 -66 -21 -141 -50
-284 -59 -408 -60 -792 0 -368 8 -498 46 -770 101 -723 345 -1458 674 -2035
175 -307 494 -730 550 -730 40 0 48 22 31 82 -8 29 -24 164 -36 300 -12 137
-41 416 -65 620 -50 423 -73 645 -83 801 -7 106 -7 108 13 104 195 -45 339
-61 450 -52 422 34 766 212 1131 586 150 154 233 254 442 534 178 236 259 355
268 391 15 60 -70 127 -132 104 -14 -6 -85 -64 -157 -129 -361 -325 -648 -511
-927 -601 -325 -106 -701 -90 -1017 41 l-73 31 5 36 c2 21 9 93 15 162 70 809
316 1773 619 2430 356 769 861 1276 1493 1498 186 66 352 93 564 93 233 0 394
-39 596 -144 117 -60 240 -156 309 -240 59 -72 123 -199 138 -275 13 -61 13
-188 1 -217 l-8 -20 -7 20 c-46 133 -102 228 -191 324 -170 183 -401 298 -668
331 -107 14 -285 9 -376 -10 -460 -95 -882 -460 -1130 -976 -204 -424 -253
-929 -121 -1258 143 -356 474 -574 896 -590 290 -11 560 77 824 271 99 72 290
265 370 373 214 290 328 647 294 925 -6 50 -10 92 -8 93 8 8 96 -61 135 -105
184 -208 264 -456 239 -740 -8 -86 -6 -109 7 -144 33 -82 143 -126 201 -81 13
10 154 280 332 637 177 355 312 614 315 605 3 -8 32 -124 66 -257 69 -275 141
-531 237 -847 74 -239 89 -266 159 -285 51 -14 102 0 138 38 33 34 42 86 52
313 4 87 10 156 14 153 4 -2 10 -46 14 -97 25 -332 121 -952 222 -1428 44
-209 181 -764 199 -807 33 -79 44 -13 25 162 -14 141 -49 658 -60 900 -25 559
7 1779 65 2490 68 823 182 1298 433 1810 185 375 613 858 1046 1180 522 388
1035 586 1517 586 235 0 410 -36 585 -121 211 -102 359 -260 464 -496 33 -73
103 -291 98 -306 -2 -5 -21 14 -42 42 -56 74 -177 183 -264 239 -79 50 -111
78 -149 128 -20 27 -24 28 -130 31 -280 8 -356 5 -437 -17 -152 -40 -290 -121
-427 -248 -62 -58 -112 -91 -149 -98 -30 -6 -309 -198 -410 -283 -527 -441
-952 -1161 -1160 -1966 -140 -544 -199 -1126 -187 -1866 8 -479 34 -850 94
-1355 27 -220 27 -220 27 -1005 1 -821 -2 -907 -50 -1268 -99 -756 -376 -1491
-807 -2137 -200 -300 -511 -700 -711 -915 -64 -69 -179 -193 -256 -277 -78
-84 -161 -170 -186 -192 -48 -42 -55 -74 -19 -79 33 -5 510 239 649 332 443
296 794 656 1110 1138 51 79 114 180 140 225 127 220 821 796 1491 1235 245
161 771 490 1040 650 1420 845 2497 1264 3560 1385 201 23 808 26 975 5 363
-46 610 -107 780 -192 104 -53 153 -98 192 -178 32 -65 33 -70 33 -197 0 -104
-5 -146 -23 -210 -45 -160 -154 -351 -311 -545 -97 -121 -432 -461 -398 -405
61 103 77 194 52 302 -37 161 -144 259 -323 294 -86 16 -299 6 -437 -21 -328
-64 -984 -253 -1375 -395 -80 -29 -176 -60 -215 -70 -71 -19 -159 -61 -455
-219 -289 -155 -441 -247 -690 -419 -36 -24 -131 -83 -211 -131 -165 -97 -599
-390 -783 -528 -247 -186 -559 -446 -866 -721 -80 -72 -545 -531 -1035 -1022
-874 -875 -1064 -1058 -1376 -1328 -336 -288 -770 -627 -869 -677 -292 -147
-741 -301 -915 -315 -166 -13 -388 -52 -518 -90 -54 -16 -398 -19 -552 -4
-617 58 -1255 301 -1904 726 -146 96 -181 107 -181 61 0 -45 142 -229 312
-403 140 -144 187 -201 376 -455 385 -517 566 -690 877 -840 265 -128 564
-192 900 -192 535 -1 1070 179 1557 523 368 261 757 658 1185 1211 92 119 135
165 202 217 419 326 671 557 1467 1342 442 437 724 708 828 799 24 21 27 22
18 5 -162 -317 -694 -1296 -878 -1617 -750 -1307 -1457 -2154 -2316 -2775
-119 -86 -138 -111 -100 -132 19 -11 114 36 332 167 551 329 1107 812 1550
1345 36 43 133 136 215 206 239 205 520 502 859 906 343 410 649 858 1036
1515 283 482 455 739 688 1030 99 125 314 369 325 369 8 1 -449 -916 -621
-1244 -617 -1179 -1213 -2073 -1900 -2850 -164 -186 -538 -555 -737 -729 -218
-191 -583 -483 -900 -720 -137 -103 -256 -198 -263 -212 -7 -13 -10 -33 -7
-44 12 -39 36 -41 187 -16 988 169 1984 832 2907 1936 623 745 1191 1696 1821
3050 299 642 358 769 508 1073 85 174 157 316 158 314 2 -2 -5 -33 -15 -70
-11 -37 -31 -118 -45 -181 -19 -85 -42 -148 -87 -243 -232 -485 -367 -820
-629 -1553 -263 -737 -330 -909 -474 -1205 -98 -204 -179 -346 -293 -518 -71
-107 -83 -130 -72 -143 7 -8 20 -14 30 -12 30 5 554 652 854 1053 466 624 735
1056 1051 1687 168 335 301 589 406 773 146 254 388 603 396 569 2 -7 -28 -82
-66 -166 -88 -193 -111 -249 -294 -713 -349 -888 -515 -1225 -842 -1710 -412
-609 -813 -1138 -1305 -1720 -373 -441 -734 -808 -1131 -1150 -630 -543 -1303
-973 -2044 -1309 -157 -71 -175 -77 -348 -110 -616 -118 -1271 -208 -1688
-231 -58 -4 -125 -8 -150 -10 -57 -6 -777 -6 -810 -1 -14 2 -72 7 -129 11
-757 46 -1550 270 -2145 607 -433 244 -843 592 -1138 963 -343 431 -560 905
-658 1435 -39 206 -68 232 -310 275 -597 106 -1233 344 -1750 655 -403 242
-683 462 -1026 804 -287 288 -491 537 -696 851 -736 1125 -1021 2472 -802
3790 26 157 88 448 105 492 7 20 6 30 -5 41 -19 19 -41 4 -51 -35 -3 -14 -34
-74 -69 -132 -34 -58 -93 -161 -130 -228 -37 -68 -73 -123 -80 -123 -7 0 -37
-44 -68 -97 -503 -877 -687 -2042 -513 -3247 16 -114 21 -174 14 -182 -6 -8 6
-74 40 -205 26 -107 61 -261 76 -344 14 -82 29 -160 31 -173 4 -19 7 -21 25
-11 11 6 22 9 23 7 1 -2 22 -59 45 -128 183 -532 499 -1103 846 -1525 l93
-113 -46 -33 c-148 -106 -317 -249 -726 -613 -362 -323 -665 -615 -937 -902
-684 -723 -1118 -1259 -1831 -2259 -330 -463 -425 -603 -674 -993 l-219 -344
-115 -96 c-764 -644 -1390 -1297 -1929 -2012 -497 -659 -728 -1121 -828 -1650
-13 -73 -17 -145 -17 -310 0 -199 2 -222 26 -311 90 -333 272 -546 608 -714
476 -238 1371 -307 2245 -175 714 109 1408 319 2432 736 902 368 1160 444
1810 529 738 97 1210 262 1727 607 315 210 645 504 892 793 185 217 382 500
529 760 286 504 540 1215 671 1883 16 85 32 141 38 139 13 -4 54 -139 55 -179
2 -48 -138 -727 -193 -943 -176 -682 -381 -1172 -679 -1620 -132 -199 -233
-321 -417 -506 -253 -253 -458 -402 -797 -576 -223 -115 -334 -160 -658 -267
-154 -51 -337 -120 -408 -152 -142 -65 -161 -83 -288 -265 -32 -47 -97 -130
-142 -185 -115 -137 -467 -610 -638 -854 -13 -19 -95 -110 -181 -203 -309
-330 -491 -569 -668 -878 -70 -123 -88 -164 -76 -176 3 -3 68 54 143 128 76
74 188 174 248 222 126 101 374 269 520 352 177 102 1278 648 1484 736 l43 19
-73 -81 c-41 -44 -90 -98 -109 -119 -19 -21 -105 -80 -190 -130 -524 -312
-1100 -792 -1658 -1384 -276 -292 -449 -496 -634 -746 -657 -889 -841 -1677
-548 -2351 44 -102 159 -301 170 -294 4 3 0 33 -9 67 -12 48 -16 114 -16 283
0 192 3 233 23 325 103 469 344 898 838 1491 163 195 416 480 422 474 2 -2
-33 -70 -78 -150 -45 -81 -99 -187 -120 -236 -27 -61 -69 -127 -135 -213 -542
-707 -671 -1387 -386 -2020 86 -191 282 -478 481 -706 54 -62 60 -74 115 -240
297 -898 765 -1928 1305 -2870 618 -1078 1346 -2103 2206 -3104 758 -884 1659
-1776 2509 -2486 2045 -1707 4092 -2641 6065 -2768 147 -9 771 -9 915 0 666
43 1122 151 1570 372 270 134 455 260 639 436 344 329 541 705 613 1170 24
156 23 487 -1 655 -57 394 -173 776 -378 1239 -44 99 -221 467 -393 816 -652
1323 -971 2067 -1266 2950 -350 1049 -518 1934 -536 2815 -11 532 21 802 221
1886 126 686 161 994 153 1374 -7 330 -41 546 -129 810 -240 720 -769 1217
-1444 1354 -174 35 -285 44 -498 38 -446 -13 -835 -120 -1326 -366 -293 -147
-513 -281 -1100 -671 -768 -511 -1374 -862 -2156 -1250 -1735 -860 -3936
-1584 -5239 -1724 -243 -26 -285 -28 -525 -28 -244 0 -384 13 -560 52 -490
110 -749 401 -751 844 0 56 -5 116 -10 133 -11 34 -55 73 -84 73 -22 0 -16 39
31 178 69 209 252 521 450 767 161 199 197 232 356 323 455 259 955 443 1573
576 311 67 782 147 1090 186 172 21 319 51 356 71 12 6 22 9 25 7 2 -2 -51
-71 -117 -154 -341 -421 -415 -521 -474 -645 -153 -324 -69 -643 218 -833 225
-148 505 -185 905 -121 291 47 953 225 1311 352 884 313 1680 765 2376 1348
748 626 1373 1394 1835 2255 210 390 381 793 551 1300 190 562 272 911 286
1210 l6 136 77 27 c96 34 249 134 405 263 66 55 189 155 273 223 674 544 1234
1148 1678 1811 458 682 797 1408 1024 2190 53 184 60 234 34 244 -42 16 -51 6
-144 -156 -242 -424 -536 -872 -829 -1263 -124 -166 -329 -425 -336 -425 -3 0
14 30 36 67 60 97 253 431 278 480 66 130 -24 315 -160 330 -35 4 -64 -3 -144
-35 -416 -165 -821 -244 -1225 -237 -166 2 -403 26 -454 44 -21 8 40 36 727
331 277 119 442 196 465 216 23 19 107 59 222 105 213 85 591 270 795 389 816
478 1518 1099 2381 2106 1021 1191 1712 2299 2126 3408 34 93 82 199 116 255
31 53 95 170 142 261 l85 165 125 115 c213 196 946 938 1263 1279 137 146 279
333 347 458 65 116 118 268 127 357 3 36 10 66 14 66 13 0 11 107 -1 115 -5 3
-10 23 -10 44 0 61 -37 190 -80 276 -178 357 -633 566 -1370 630 -156 14 -734
14 -830 1 -19 -3 -91 -10 -160 -16 -302 -27 -747 -106 -981 -176 -12 -3 -28
22 -66 108 -44 98 -52 124 -57 200 -9 127 -63 325 -162 590 -225 605 -555
1760 -743 2603 -153 689 -217 1082 -292 1805 -43 416 -44 466 -19 725 26 264
-37 598 -162 865 -257 550 -743 917 -1404 1064 -88 19 -247 43 -339 50 -155
12 -280 17 -285 12z m1079 -2307 c-28 -629 33 -1462 172 -2369 73 -479 103
-642 280 -1530 161 -813 186 -923 280 -1270 70 -255 109 -444 109 -525 0 -29
-18 -86 -57 -181 l-57 -138 -19 44 c-11 24 -30 90 -43 147 -13 57 -55 223 -94
368 -68 256 -70 269 -80 437 -31 527 -79 915 -250 2003 -186 1184 -229 1513
-260 2015 -18 277 -24 790 -11 962 10 152 30 302 38 295 2 -3 -2 -118 -8 -258z
m-1148 -26 c-121 -243 -212 -490 -347 -943 -233 -780 -332 -1354 -375 -2165
-15 -280 -6 -1111 15 -1400 35 -489 46 -653 57 -889 15 -314 7 -932 -15 -1146
-19 -189 -54 -423 -67 -453 -6 -16 -7 -10 -3 23 11 74 7 718 -5 950 -15 278
-45 667 -76 1000 -100 1056 -111 1195 -127 1638 -35 959 91 1845 353 2484 152
369 453 873 588 985 36 29 66 53 68 53 2 0 -28 -62 -66 -137z m1703 4 c58
-119 83 -218 96 -380 18 -216 29 -309 44 -367 8 -30 19 -118 26 -195 33 -419
109 -884 245 -1505 143 -653 266 -1116 490 -1845 47 -154 113 -381 146 -505
142 -529 247 -763 420 -932 l68 -67 -82 -27 c-45 -15 -129 -44 -186 -66 -57
-21 -107 -38 -111 -38 -4 0 -11 33 -14 73 -12 121 -33 203 -111 432 -41 121
-104 326 -139 455 -65 238 -116 390 -166 490 -15 30 -30 78 -34 105 -19 141
-88 453 -183 825 -382 1499 -470 2014 -548 3220 -14 217 -27 405 -29 418 -6
41 21 5 68 -91z m-1268 -348 c-90 -699 -89 -1375 5 -2214 21 -191 50 -411 123
-955 81 -606 122 -991 146 -1377 13 -219 13 -775 0 -958 -15 -209 -38 -411
-45 -403 -2 2 -13 75 -25 163 -11 88 -36 256 -56 374 -24 151 -37 274 -44 415
-28 566 -76 1042 -190 1896 -112 837 -135 1111 -135 1600 0 616 57 1057 203
1553 20 71 38 122 40 114 2 -8 -8 -101 -22 -208z m-618 -1811 c-23 -633 12
-1220 137 -2308 112 -973 135 -1284 135 -1784 0 -436 -17 -594 -96 -919 -24
-100 -47 -220 -51 -267 l-6 -85 -110 -75 c-61 -41 -170 -119 -243 -172 -73
-54 -134 -98 -136 -98 -2 0 24 55 57 123 158 324 249 681 297 1162 9 85 13
276 12 550 0 442 -6 560 -64 1230 -65 751 -64 739 -64 1285 0 534 8 707 53
1101 21 182 83 601 88 595 2 -2 -2 -154 -9 -338z m-5183 153 c165 -44 303
-127 424 -257 90 -96 113 -134 50 -82 -59 47 -182 90 -230 79 -77 -17 -108
-53 -135 -152 -22 -80 -184 -355 -254 -432 -94 -103 -246 -156 -340 -117 -88
37 -91 152 -11 445 21 77 41 154 44 171 13 73 -39 157 -103 166 -46 7 -115
-21 -210 -83 -161 -106 -281 -239 -358 -394 -75 -151 -102 -260 -102 -421 0
-208 60 -364 190 -494 124 -124 254 -178 450 -187 132 -6 234 13 349 67 130
61 266 181 347 305 21 33 57 85 79 115 112 151 172 333 178 538 1 45 5 78 8
74 4 -4 24 -45 45 -92 38 -83 39 -87 38 -200 -2 -270 -113 -494 -374 -751
-167 -165 -336 -271 -538 -339 -251 -84 -518 -77 -682 18 -111 64 -202 180
-247 316 -26 78 -28 89 -27 286 0 174 3 220 22 304 105 473 361 847 699 1023
104 55 230 98 328 113 93 14 269 5 360 -19z m-6147 -10560 c64 -54 196 -160
292 -235 96 -76 176 -141 178 -145 1 -4 -71 -47 -160 -96 -450 -249 -1042
-626 -1553 -989 -461 -327 -1307 -985 -1700 -1320 -286 -244 -835 -745 -1020
-931 -152 -153 -148 -146 50 85 587 683 1429 1596 1984 2151 474 474 769 747
1151 1066 184 154 641 513 653 513 4 0 60 -44 125 -99z m900 -1645 c-330 -169
-570 -315 -1228 -749 -813 -536 -1131 -757 -1611 -1118 -914 -688 -1829 -1497
-2623 -2317 -667 -690 -1066 -1135 -1356 -1512 -57 -74 -153 -188 -214 -253
-136 -144 -144 -157 -130 -195 10 -26 6 -37 -47 -123 -32 -52 -59 -100 -59
-106 0 -36 53 4 225 173 108 105 296 272 435 387 135 111 466 384 735 607
1199 994 1700 1380 2485 1917 555 379 1282 843 1640 1045 151 85 338 184 325
171 -5 -5 -68 -59 -140 -119 -266 -223 -501 -436 -1070 -968 -1127 -1055
-1600 -1548 -2357 -2459 -37 -44 -93 -117 -124 -161 -32 -45 -102 -141 -156
-213 -54 -73 -98 -135 -98 -138 0 -22 44 14 160 131 90 91 163 154 220 191
219 142 398 290 798 656 275 251 419 376 967 843 672 571 1191 1000 1775 1469
386 309 370 297 350 270 -8 -11 -141 -168 -295 -350 -764 -899 -1075 -1294
-1365 -1730 -245 -368 -422 -696 -565 -1043 -44 -109 -54 -147 -36 -140 5 2
66 84 136 183 278 394 292 411 452 550 264 232 535 498 1047 1029 609 631 863
881 904 889 21 4 53 32 108 94 44 48 95 104 114 123 48 47 531 453 534 448 6
-6 -207 -479 -313 -694 -128 -261 -204 -394 -485 -849 -350 -569 -504 -852
-616 -1136 -49 -124 -58 -159 -42 -159 16 0 189 159 274 251 47 52 119 136
160 188 99 127 161 203 308 377 328 390 594 786 1141 1696 68 114 126 207 129
208 3 0 -2 -66 -11 -147 -21 -176 -103 -515 -208 -853 -218 -702 -482 -1280
-811 -1771 -58 -86 -79 -124 -71 -132 14 -14 32 3 128 120 57 69 94 103 143
132 628 375 1203 1279 1553 2441 212 701 309 1297 294 1803 -10 350 -67 600
-179 782 -17 27 -38 61 -46 75 -13 20 -8 18 22 -10 54 -49 196 -221 196 -236
0 -7 24 -98 54 -202 64 -224 124 -490 165 -732 54 -326 54 -324 31 -640 -61
-850 -126 -1232 -291 -1716 -418 -1230 -1264 -2184 -2304 -2598 -310 -123
-566 -175 -1120 -226 -544 -51 -925 -162 -1835 -537 -710 -293 -946 -382
-1245 -472 -407 -122 -927 -227 -1390 -282 -237 -28 -738 -35 -923 -14 -572
67 -896 285 -992 665 -99 389 54 890 453 1490 285 428 760 999 1222 1469 690
701 1480 1343 2630 2136 300 207 1305 876 1555 1034 776 494 1354 789 1919
982 288 98 531 157 654 158 l78 1 -163 -84z m7752 -5027 c-8 -41 -10 -86 -5
-115 4 -27 8 -85 9 -130 2 -45 8 -101 15 -125 11 -40 10 -56 -13 -144 -13 -55
-54 -246 -91 -425 -94 -467 -143 -643 -278 -1000 -130 -348 -345 -799 -533
-1120 -944 -1615 -2519 -2832 -4334 -3349 -225 -64 -581 -152 -695 -171 -149
-26 -334 -28 -420 -5 -187 50 -267 188 -236 407 21 143 64 211 316 498 151
172 209 253 344 478 462 769 602 1375 394 1715 -19 32 -33 59 -32 61 2 1 85
35 184 76 1898 775 3681 1964 5180 3456 l190 189 9 -115 c6 -83 5 -134 -4
-181z m1750 -4893 c114 -9 266 -41 375 -78 414 -141 678 -461 789 -959 48
-214 60 -348 60 -669 0 -444 -34 -749 -179 -1615 -143 -851 -151 -917 -164
-1290 -46 -1327 258 -2738 954 -4430 193 -469 347 -803 740 -1605 588 -1201
730 -1546 824 -1995 49 -233 56 -305 56 -540 0 -188 -4 -236 -23 -332 -63
-315 -197 -563 -418 -773 -384 -365 -990 -608 -1674 -670 -63 -6 -140 -13
-170 -15 -67 -6 -609 -7 -665 -1 -22 3 -80 7 -130 11 -626 42 -1460 215 -2195
457 -1394 459 -2751 1305 -4305 2686 -1343 1194 -2507 2530 -3540 4061 -386
572 -705 1102 -1049 1741 -151 280 -549 1070 -543 1076 2 3 17 -12 33 -33 84
-111 291 -341 464 -518 182 -185 205 -213 312 -375 306 -464 724 -1034 1309
-1785 681 -876 1330 -1638 2028 -2385 228 -243 932 -950 1191 -1194 981 -928
1797 -1544 2684 -2026 1043 -567 2123 -946 3086 -1084 756 -109 1314 -73 1829
115 197 73 496 230 636 335 222 166 492 547 585 823 25 76 21 104 -19 121 -37
15 -50 8 -156 -80 -231 -193 -330 -240 -771 -369 -236 -69 -499 -96 -944 -96
-264 0 -434 8 -625 31 -806 93 -1675 351 -2552 757 -601 279 -1169 619 -1718
1030 -152 114 -535 420 -531 425 2 1 120 -44 262 -101 238 -95 274 -113 444
-218 985 -614 1976 -1042 2912 -1258 307 -71 665 -128 925 -148 127 -10 659
-10 788 0 299 23 730 82 864 118 40 11 128 44 195 73 66 29 138 59 159 66 47
15 64 49 45 88 -13 27 -15 27 -138 33 -69 4 -195 16 -280 27 -85 11 -198 23
-250 26 -408 27 -711 76 -1215 198 -115 28 -205 52 -200 54 6 2 69 15 140 29
332 66 612 171 813 307 125 84 277 241 325 334 13 25 14 35 4 48 -11 16 -21
16 -127 2 -63 -8 -155 -17 -205 -21 -49 -4 -101 -9 -115 -11 -39 -6 -517 -6
-616 1 -49 4 -144 13 -211 21 -67 8 -125 14 -130 14 -4 1 35 16 87 35 253 92
518 265 642 420 26 32 84 131 129 219 45 89 93 178 106 198 43 69 19 94 -49
52 -84 -53 -192 -79 -368 -89 -58 -3 -132 -8 -165 -10 -446 -34 -1221 -40
-1515 -11 -364 34 -672 84 -965 157 -283 69 -282 67 -40 69 116 0 235 3 265 5
30 2 96 7 145 10 611 41 1308 276 1704 573 177 134 366 322 434 434 34 57 43
80 61 161 10 41 -31 79 -76 71 -67 -11 -156 -48 -270 -111 -186 -103 -388
-183 -666 -264 -215 -63 -474 -109 -702 -126 -203 -15 -1110 -6 -1127 11 -2 1
61 19 140 40 774 207 1547 608 2001 1037 148 139 289 320 365 465 34 67 32
102 -8 123 -40 22 -258 -57 -656 -237 -361 -163 -821 -338 -1145 -437 -512
-155 -1099 -270 -1535 -300 -49 -4 -108 -8 -130 -11 -119 -12 -798 -2 -814 12
-2 2 29 4 70 4 41 0 97 3 124 5 28 2 104 9 170 15 1135 103 2213 542 3066
1251 243 202 530 488 704 701 47 57 53 89 21 101 -7 3 -87 -40 -177 -96 -705
-433 -1474 -760 -2254 -956 -421 -106 -914 -184 -1310 -208 -168 -10 -663 -10
-830 0 -594 37 -1227 182 -1815 417 -161 64 -204 84 -160 75 202 -41 556 -93
780 -115 63 -6 131 -12 152 -15 232 -27 992 -27 1286 1 978 92 1738 302 2532
699 425 212 717 395 1001 627 97 78 205 166 240 193 55 44 64 55 67 87 4 42
-24 78 -59 78 -12 0 -72 -24 -133 -54 -61 -30 -190 -82 -286 -116 -96 -34
-236 -84 -310 -112 -650 -243 -1197 -388 -1890 -502 -403 -67 -719 -103 -1065
-123 -169 -10 -785 -10 -944 0 -858 54 -1713 259 -2521 604 -191 82 -492 224
-486 230 2 2 75 -14 162 -36 482 -120 1012 -200 1521 -228 178 -10 788 -10
966 0 918 51 1864 255 2697 582 339 133 650 278 1035 482 349 186 477 267 800
503 110 81 227 164 260 185 95 61 115 83 115 125 0 25 -8 45 -24 63 -43 46
-64 44 -193 -16 -192 -90 -354 -151 -808 -303 -541 -182 -724 -239 -1187 -369
-714 -201 -1149 -301 -1658 -379 -191 -29 -570 -72 -715 -81 -55 -3 -129 -8
-165 -11 -84 -7 -803 -6 -854 1 -50 7 -59 15 -18 15 50 0 332 38 553 75 907
152 1757 424 2559 821 748 369 1350 786 1727 1195 97 106 455 545 590 724 162
216 291 414 376 579 28 53 34 73 25 83 -13 16 5 32 -306 -270 -425 -413 -667
-602 -1185 -926 -912 -571 -1650 -911 -2507 -1155 -561 -160 -1209 -279 -1795
-330 -99 -9 -195 -18 -212 -19 -64 -6 -16 11 149 51 974 242 2066 722 3043
1340 387 245 889 612 1402 1024 572 461 933 863 1136 1267 93 183 111 234 97
261 -17 31 -47 24 -205 -44 -337 -146 -579 -304 -1189 -779 -582 -453 -1122
-818 -1756 -1190 -84 -49 4 13 271 191 584 389 820 571 1644 1266 342 289 416
356 390 356 -3 0 -38 -14 -77 -30 -39 -17 -73 -29 -75 -27 -2 2 32 33 74 69
185 156 471 485 456 524 -7 20 -42 15 -169 -21 -226 -66 -498 -193 -879 -412
-454 -260 -1238 -695 -1656 -918 -345 -185 -527 -285 -738 -408 -166 -97 -277
-149 -606 -287 -1189 -496 -2619 -891 -3909 -1080 -146 -21 -191 -21 -84 0 35
6 188 43 340 81 1751 435 3418 1097 5002 1987 437 245 824 484 1371 847 475
316 703 455 940 575 402 204 742 305 1125 332 57 5 259 1 350 -6z m-23850
-377 c0 -19 185 -431 301 -668 65 -134 119 -249 119 -255 0 -6 -20 -60 -45
-119 -123 -298 -217 -671 -290 -1154 -29 -189 -107 -817 -129 -1043 -54 -531
-85 -1287 -58 -1397 5 -24 8 -43 6 -43 -3 0 -33 14 -67 31 -148 75 -311 191
-409 292 -63 65 -68 72 -63 106 3 20 10 214 15 431 20 791 53 1021 344 2413
107 511 191 958 232 1239 15 103 31 185 36 182 4 -3 8 -10 8 -15z m765 -1556
c110 -194 271 -461 388 -643 l99 -155 -17 -45 c-134 -345 -210 -666 -305
-1285 -23 -148 -61 -387 -85 -530 -24 -143 -51 -318 -60 -390 -18 -143 -36
-441 -27 -464 7 -18 24 -25 -260 107 l-244 114 34 67 c46 93 61 192 62 401 0
328 31 926 66 1280 21 217 56 453 124 830 63 348 112 634 131 768 6 45 12 82
14 82 1 0 38 -62 80 -137z m865 -1343 c62 -85 162 -220 222 -299 l110 -143
-41 -142 c-77 -264 -111 -461 -205 -1181 -49 -369 -59 -504 -53 -682 3 -84 2
-153 -3 -153 -4 0 -104 45 -221 100 -205 96 -214 101 -212 127 1 16 8 80 17
143 9 63 20 228 26 365 6 138 15 352 20 476 11 263 37 469 114 904 31 171 65
371 76 445 30 195 31 202 35 199 2 -2 54 -74 115 -159z m691 -877 c41 -49 115
-134 166 -190 l91 -102 -34 -78 c-42 -98 -75 -237 -113 -473 -16 -102 -45
-270 -64 -375 -50 -269 -67 -414 -74 -617 -3 -98 -9 -178 -13 -178 -8 0 -242
109 -248 115 -2 2 5 43 16 92 32 137 42 250 52 591 6 175 16 371 24 437 15
124 119 865 121 865 1 0 35 -39 76 -87z m855 -1054 c-56 -167 -122 -539 -145
-822 -6 -70 -11 -207 -11 -303 0 -95 -3 -174 -7 -174 -5 0 -93 39 -196 87
-149 69 -186 90 -181 103 42 94 47 126 55 360 7 203 12 255 38 380 16 80 48
232 70 339 23 107 48 257 58 333 l17 139 169 -169 169 -169 -36 -104z m454
-279 c52 -45 98 -86 102 -89 4 -4 -2 -31 -13 -61 -32 -82 -47 -187 -54 -370
-4 -91 -20 -259 -36 -375 -15 -115 -31 -252 -35 -303 -5 -61 -11 -92 -18 -89
-6 3 -52 24 -102 47 l-92 42 4 81 c2 45 9 192 15 327 15 358 44 638 90 848 10
48 13 52 27 39 10 -7 60 -51 112 -97z m556 -469 l130 -103 -23 -82 c-54 -185
-83 -448 -83 -758 0 -98 -2 -178 -4 -178 -4 0 -239 111 -244 116 -2 1 3 33 12
71 32 144 37 209 46 563 9 362 16 483 30 478 4 -2 65 -50 136 -107z m1168
-1524 c10 -34 11 -47 3 -47 -28 1 -36 16 -30 58 7 50 9 50 27 -11z"/>
<path d="M32467 23593 c-3 -5 -33 -73 -67 -153 -166 -388 -503 -991 -836
-1495 -94 -144 -328 -458 -343 -463 -5 -2 3 28 19 66 72 177 184 568 210 735
10 63 7 333 -4 344 -2 3 -16 -18 -31 -47 -14 -28 -46 -80 -70 -116 -24 -35
-100 -178 -169 -317 -130 -263 -224 -430 -383 -681 -73 -114 -265 -397 -289
-425 -12 -14 -10 14 6 85 28 119 55 286 81 488 19 156 21 190 11 264 -6 47
-18 92 -26 100 -12 13 -19 11 -51 -13 -77 -60 -162 -191 -295 -460 -255 -513
-607 -1151 -625 -1133 -3 2 2 28 10 58 41 156 59 303 59 505 0 190 -1 207 -32
345 -18 80 -35 155 -38 168 -8 39 -30 24 -48 -35 -19 -61 -137 -351 -238 -588
-117 -272 -190 -409 -367 -692 -46 -73 -84 -133 -84 -133 -1 0 0 57 2 127 8
289 -52 591 -143 725 -46 69 -70 88 -86 72 -24 -24 -61 -159 -89 -324 -49
-290 -155 -607 -283 -850 -72 -138 -83 -151 -74 -90 41 272 17 579 -63 786
-56 144 -188 334 -233 334 -24 0 -24 0 12 -185 29 -144 31 -355 6 -470 -41
-188 -139 -468 -252 -725 -160 -362 -354 -621 -594 -792 -52 -38 -103 -79
-113 -93 -48 -67 -61 -190 -30 -280 13 -38 38 -71 112 -146 115 -115 136 -124
265 -116 134 9 261 46 546 160 592 235 1273 619 1815 1021 83 61 188 138 235
171 610 425 1141 941 1541 1500 211 294 414 636 593 1000 176 357 300 731 381
1145 33 170 73 440 82 548 5 71 4 82 -10 82 -9 0 -18 -3 -20 -7z"/>
<path d="M34121 17062 c-35 -76 -38 -92 -17 -92 15 0 86 120 86 145 0 8 -8 15
-19 15 -13 0 -27 -20 -50 -68z"/>
<path d="M21765 37270 c16 -16 33 -30 39 -30 5 0 -3 14 -19 30 -16 17 -33 30
-39 30 -5 0 3 -13 19 -30z"/>
<path d="M18665 20438 c-65 -74 -92 -148 -124 -338 -11 -63 -31 -176 -45 -250
-33 -183 -63 -424 -81 -665 -17 -229 -20 -704 -5 -910 86 -1189 455 -2487
1157 -4070 177 -400 240 -519 398 -760 102 -154 263 -365 297 -389 31 -22 80
-20 112 5 25 20 28 20 45 4 11 -9 33 -53 51 -98 74 -190 233 -487 375 -702 48
-71 -512 375 -895 714 -206 182 -652 621 -859 846 -462 500 -952 1106 -1327
1640 -66 94 -213 296 -326 451 -305 415 -477 683 -589 917 -30 62 -47 87 -60
87 -10 0 -21 -4 -24 -10 -3 -5 14 -74 39 -152 25 -79 88 -296 141 -483 183
-648 280 -906 499 -1330 147 -284 319 -574 511 -860 45 -66 84 -127 89 -135
11 -22 -206 203 -351 365 -132 146 -284 332 -366 447 -50 71 -74 86 -107 68
-43 -23 -42 -24 336 -712 253 -461 445 -746 775 -1155 307 -379 803 -902 1113
-1171 583 -508 1323 -1006 1952 -1314 l128 -63 114 0 114 0 -6 -50 c-29 -250
-38 -971 -17 -1270 69 -957 309 -1658 649 -1889 103 -70 167 -90 292 -90 289
-1 521 160 905 629 196 241 345 406 524 585 253 251 442 392 681 507 208 99
222 107 252 144 35 44 53 113 44 164 -7 35 -30 62 -186 212 -281 273 -436 458
-644 773 -142 213 -222 351 -334 575 -262 525 -431 996 -767 2140 -315 1070
-467 1506 -700 2005 -116 247 -163 330 -190 330 -12 0 -27 -6 -33 -13 -11 -12
-3 -161 18 -337 5 -47 10 -94 10 -105 -1 -18 -1 -19 -11 -2 -17 28 -47 20 -78
-23 -15 -21 -30 -38 -32 -36 -2 3 0 76 4 163 9 176 2 516 -14 723 -13 159 -20
202 -36 207 -16 6 -32 -33 -114 -279 -119 -356 -226 -813 -315 -1353 -21 -126
-40 -232 -42 -235 -4 -6 -285 274 -405 405 -278 302 -562 678 -796 1052 -631
1010 -1020 2121 -1351 3863 -34 179 -84 428 -111 554 -73 337 -109 522 -109
563 0 91 -43 153 -106 153 -26 0 -40 -9 -69 -42z m3724 -6518 c20 -107 87
-380 152 -622 l62 -228 -27 -122 c-73 -341 -81 -446 -80 -1003 1 -883 45
-2462 85 -2995 14 -191 43 -419 73 -572 47 -242 60 -259 96 -126 95 353 135
722 185 1713 14 287 35 836 35 939 0 94 10 38 30 -170 34 -357 40 -530 40
-1140 0 -325 5 -649 10 -720 11 -136 57 -329 72 -303 5 8 40 66 80 129 106
171 169 367 227 717 32 193 68 593 55 615 -2 3 -1 9 4 12 4 2 31 -66 59 -152
l52 -157 5 -290 c5 -256 25 -588 42 -667 3 -16 10 -28 15 -28 7 0 136 384 155
463 9 39 16 40 67 11 67 -37 119 -34 255 15 62 22 135 52 163 67 l50 28 89
-89 c50 -49 90 -92 89 -95 0 -3 -49 -34 -109 -69 -285 -167 -565 -416 -959
-851 -338 -373 -493 -504 -665 -560 -151 -49 -295 28 -388 206 -96 185 -199
610 -242 1004 -37 331 -41 436 -41 1015 1 698 10 869 120 2135 79 912 102
1258 112 1688 3 155 9 279 13 275 3 -4 12 -37 19 -73z m621 -2095 c9 -28 9
-39 -4 -57 -15 -22 -16 -20 -16 35 0 31 2 57 4 57 3 0 10 -16 16 -35z m515
-1265 c20 -44 20 -44 -12 -54 -22 -7 -23 -5 -23 49 0 63 8 64 35 5z"/>
</g>
</svg>
